<svg viewBox="0 0 21 21" fill="none" xmlns="http://www.w3.org/2000/svg">
<rect y="0.380936" width="20.2381" height="20.2381" rx="5.95238" fill="#0ACF83"/>
<mask id="mask0_648:418" style="mask-type:alpha" maskUnits="userSpaceOnUse" x="0" y="0" width="21" height="21">
<rect y="0.380951" width="20.2381" height="20.2381" rx="5.95238" fill="#0ACF83"/>
</mask>
<g mask="url(#mask0_648:418)">
<path d="M13.0689 10.0181C13.4641 11.4929 12.5873 13.0091 11.1105 13.4048C9.63368 13.8005 8.11618 12.9258 7.72103 11.4511C7.32588 9.97637 8.20272 8.46009 9.6795 8.06439C11.1563 7.66869 12.6738 8.54341 13.0689 10.0181Z" fill="white"/>
<path fill-rule="evenodd" clip-rule="evenodd" d="M-0.230604 1.89787C-0.605726 2.27254 -0.605938 2.87978 -0.231077 3.25419L4.47558 7.95516C3.83921 9.30387 3.65884 10.8757 4.0748 12.4281C5.0088 15.9138 8.59562 17.9814 12.0862 17.0461C15.5768 16.1108 17.6493 12.5268 16.7153 9.04112C15.7813 5.55541 12.1945 3.4879 8.70391 4.42319C8.17838 4.56401 7.68499 4.76487 7.22916 5.01639L2.61688 0.409678C2.24202 0.0352697 1.63403 0.0354813 1.25891 0.410151L-0.230604 1.89787ZM11.3707 14.3759C13.3845 13.8363 14.5802 11.7686 14.0414 9.75766C13.5025 7.74668 11.4332 6.55388 9.41941 7.09347C7.40561 7.63307 6.20993 9.70072 6.74877 11.7117C7.28761 13.7227 9.35693 14.9155 11.3707 14.3759Z" fill="white"/>
</g>
</svg>
